<?xml version="1.0" encoding="UTF-8" standalone="no"?>
<!-- Created with Inkscape (http://www.inkscape.org/) -->

<svg
   version="1.1"
   id="svg1"
   width="416"
   height="623"
   viewBox="0 0 416 623"
   xmlns="http://www.w3.org/2000/svg"
   xmlns:svg="http://www.w3.org/2000/svg">
  <defs
     id="defs1" />
  <g
     id="g1"
     transform="translate(-3774.8556,-244.23372)">
    <path
       id="path1"
       style="fill:#ffffff;fill-opacity:1"
       d="m 3937.4626,815.65193 c -0.3338,-0.86998 -0.607,-20.66998 -0.607,-44 v -42.41821 h 68.5 68.5 v -136 -136 h 27.5 27.5 v 179.39301 c 0,162.66047 -0.1475,179.44963 -1.5818,180 -0.8699,0.33384 -43.7968,0.60699 -95.393,0.60699 -84.621,0 -93.8706,-0.15496 -94.4182,-1.58179 z m 0.072,-146.07274 c -0.3733,-0.37334 -0.6788,-48.30381 -0.6788,-106.51214 V 457.23372 h 37.5046 37.5045 l -0.2545,106.25 -0.2546,106.25 -36.5712,0.26213 c -20.1141,0.14418 -36.8766,-0.0433 -37.25,-0.41666 z m 253.321,-20.34547 v -218 h -58.5 -58.5 v -93.5 -93.5 h -149.5 -149.5 v 13.9959 13.9959 l 118.25,0.2541 118.25,0.2541 0.2561,79.25 0.256,79.25 h -51.006 -51.0061 l -0.1723,88.25 c -0.095,48.5375 -0.041,95.675 0.1189,104.75 0.1602,9.075 -0.042,23.1375 -0.4486,31.25 l -0.7398,14.75 h -50.7624 c -49.0767,0 -50.779,-0.0633 -51.2606,-1.9049 -0.274,-1.04769 -0.439,-48.86019 -0.3667,-106.25 l 0.1315,-104.3451 33,-0.5 33,-0.5 0.2799,-12.75 0.2799,-12.75 h -49.0299 -49.0299 v 148.99296 148.99296 l 67.25,0.25704 67.25,0.25704 0.2267,68 c 0.1247,37.4 0.2372,68.33753 0.25,68.75003 0.013,0.4125 63.2483,0.75 140.5233,0.75 h 140.5 z" />
  </g>
</svg>
